<?xml version="1.0" standalone="no"?><!DOCTYPE svg PUBLIC "-//W3C//DTD SVG 1.1//EN" "http://www.w3.org/Graphics/SVG/1.1/DTD/svg11.dtd"><svg t="1626179895478" class="icon" viewBox="0 0 1024 1024" version="1.1" xmlns="http://www.w3.org/2000/svg" p-id="1276" xmlns:xlink="http://www.w3.org/1999/xlink" width="200" height="200"><defs><style type="text/css">html, * { user-select: text !important; }
</style></defs><path d="M512.9 960.2c-245.5 0-445.3-199.8-445.3-445.3S267.4 69.6 512.9 69.6c97.2 0 189.6 30.8 267.1 89 15.1 11.4 18.2 32.8 6.8 48-11.4 15.1-32.8 18.2-48 6.8-65.6-49.2-143.7-75.2-226-75.2C305 138.2 136 307.2 136 515s169 376.8 376.8 376.8 376.8-169 376.8-376.8c0-48.5-9.1-95.8-27-140.4-7.1-17.6 1.5-37.5 19-44.6 17.6-7.1 37.5 1.5 44.6 19 21.2 52.8 32 108.6 32 165.9 0 245.6-199.7 445.3-445.3 445.3z" fill="#4D4D4D" p-id="1277"></path><path d="M829.1 273.3m-39.5 0a39.5 39.5 0 1 0 79 0 39.5 39.5 0 1 0-79 0Z" fill="#4D4D4D" p-id="1278"></path><path d="M523.6 954.4c-6.3 0-12.6-2.2-17.8-6.6-16.1-13.7-31.6-28.6-46.1-44.3-45.5-48.9-81.4-104.9-106.8-166.5-27.4-66.3-41.4-136.5-41.9-208.8v-3.5c0-61.6 10.1-122.2 29.8-180 28.8-84.1 78.2-161.2 143-222.8 4.9-4.7 10-9.3 15.1-13.8 11.3-10 28.7-9 38.7 2.4 10 11.3 9 28.7-2.4 38.7-4.6 4.1-9.2 8.3-13.6 12.5-58.3 55.6-102.9 125-128.9 200.8-17.8 52.1-26.9 106.7-26.9 162.3v3.3c0.4 65 13.1 128.3 37.7 188 22.9 55.5 55.3 106 96.3 150.1 13.1 14.2 27.1 27.6 41.5 39.9 11.5 9.8 12.9 27.1 3 38.6-5.2 6.4-12.9 9.7-20.7 9.7z" fill="#4D4D4D" p-id="1279"></path><path d="M487.4 953.1c-8.4 0-16.6-3.8-22-11-9.1-12.1-6.6-29.3 5.6-38.4 16-11.9 31.4-25 45.9-38.7 43.8-41.7 79.3-90.2 105.5-144.3 29.6-60.8 46.3-126.1 49.6-193.9 0.4-8.5 0.6-16.9 0.6-25 0-43.4-5.5-86.6-16.5-128.1-20.8-79.2-61.5-153-117.5-213.3-4-4.4-8.3-8.8-13.2-13.7-10.7-10.7-10.8-28-0.1-38.8 10.7-10.7 28-10.8 38.8-0.1 5.6 5.5 10.4 10.6 14.9 15.5 62 66.7 107.1 148.5 130.2 236.5 12.1 46.1 18.3 93.9 18.3 142.1 0 9-0.2 18.3-0.7 27.6-3.7 75.3-22.2 147.7-55.1 215.2-29.1 60-68.5 113.8-117 160-16 15.3-33.1 29.7-50.9 42.9-5 3.7-10.7 5.5-16.4 5.5z" fill="#4D4D4D" p-id="1280"></path><path d="M834.9 747.1c-5.3 0-10.7-1.5-15.4-4.8-58.1-39.7-122.1-67.9-190.2-83.9-42.6-10-86.6-15.1-130.8-15.1h-0.2c-33.2 0-66.3 2.8-98.6 8.5-73 12.7-142 39.3-204.9 78.9-12.8 8.1-29.7 4.2-37.8-8.6-8.1-12.8-4.2-29.7 8.6-37.8 69-43.4 144.6-72.5 224.7-86.5 35.4-6.2 71.7-9.3 108-9.3h0.2c48.4 0 96.6 5.6 143.3 16.6 74.7 17.5 144.9 48.5 208.6 92 12.5 8.5 15.7 25.6 7.2 38.1-5.4 7.7-14 11.9-22.7 11.9zM924 480.5l-801.8-0.3c-15.1 0-27.4-12.3-27.4-27.4 0-15.1 12.3-27.4 27.4-27.4l801.8 0.3c15.1 0 27.4 12.3 27.4 27.4 0 15.2-12.3 27.4-27.4 27.4z" fill="#4D4D4D" p-id="1281"></path></svg>